<?xml version="1.0" encoding="iso-8859-1"?>
<!-- Uploaded to: SVG Repo, www.svgrepo.com, Generator: SVG Repo Mixer Tools -->
<svg version="1.1" id="Layer_1" xmlns="http://www.w3.org/2000/svg" xmlns:xlink="http://www.w3.org/1999/xlink" 
	 viewBox="0 0 512 512" xml:space="preserve">
<path style="fill:#2D2D2D;" d="M384,512H128c-8.448,0-15.36-6.912-15.36-15.36V15.36C112.64,6.912,119.552,0,128,0h256
	c8.448,0,15.36,6.912,15.36,15.36v481.28C399.36,505.088,392.448,512,384,512z"/>
<rect x="128" y="40.96" style="fill:#E0E0E0;" width="256" height="409.6"/>
<g>
	<path style="fill:#999999;" d="M286.72,25.76h-61.44c-2.816,0-5.12-2.304-5.12-5.12l0,0c0-2.816,2.304-5.12,5.12-5.12h61.44
		c2.816,0,5.12,2.304,5.12,5.12l0,0C291.84,23.456,289.536,25.76,286.72,25.76z"/>
	<path style="fill:#999999;" d="M286.72,481.28h-61.44c-2.816,0-5.12-2.304-5.12-5.12l0,0c0-2.816,2.304-5.12,5.12-5.12h61.44
		c2.816,0,5.12,2.304,5.12,5.12l0,0C291.84,478.976,289.536,481.28,286.72,481.28z"/>
</g>
<rect x="153.6" y="83.88" style="fill:#2D2D2D;" width="204.8" height="172.128"/>
<g>
	<rect x="237.952" y="373.52" style="fill:#999999;" width="120.48" height="10.24"/>
	<rect x="237.952" y="394" style="fill:#999999;" width="120.48" height="10.24"/>
</g>
<g>
	<circle style="fill:#FFFFFF;" cx="256" cy="134.736" r="30.304"/>
	<path style="fill:#FFFFFF;" d="M254.568,235.464L225.288,172c0,0-30.712,0.408-30.712,28.664s0,34.808,0,34.808
		S254.768,235.464,254.568,235.464z"/>
	<path style="fill:#FFFFFF;" d="M257.432,235.464L286.712,172c0,0,30.712,0.408,30.712,28.664s0,34.808,0,34.808
		S257.232,235.464,257.432,235.464z"/>
	<polygon style="fill:#FFFFFF;" points="256,172 234.912,172 256,218.68 277.088,172 	"/>
</g>
<rect x="153.52" y="290.112" style="fill:#DB2B42;" width="64.16" height="53.888"/>
<g>
	<circle style="fill:#FFFFFF;" cx="185.68" cy="306.08" r="9.488"/>
	<path style="fill:#FFFFFF;" d="M185.208,337.576l-9.168-19.872c0,0-9.616,0.128-9.616,8.976s0,10.896,0,10.896
		S185.272,337.576,185.208,337.576z"/>
	<path style="fill:#FFFFFF;" d="M186.104,337.576l9.168-19.872c0,0,9.616,0.128,9.616,8.976s0,10.896,0,10.896
		S186.04,337.576,186.104,337.576z"/>
	<polygon style="fill:#FFFFFF;" points="185.656,317.704 179.056,317.704 185.656,332.32 192.264,317.704 	"/>
</g>
<rect x="153.52" y="361.952" style="fill:#DB2B42;" width="64.16" height="53.888"/>
<g>
	<circle style="fill:#FFFFFF;" cx="185.68" cy="377.84" r="9.488"/>
	<path style="fill:#FFFFFF;" d="M185.208,409.392l-9.168-19.872c0,0-9.616,0.128-9.616,8.976c0,8.848,0,10.896,0,10.896
		S185.272,409.392,185.208,409.392z"/>
	<path style="fill:#FFFFFF;" d="M186.104,409.392l9.168-19.872c0,0,9.616,0.128,9.616,8.976c0,8.848,0,10.896,0,10.896
		S186.04,409.392,186.104,409.392z"/>
	<polygon style="fill:#FFFFFF;" points="185.656,389.52 179.056,389.52 185.656,404.136 192.264,389.52 	"/>
</g>
<g>
	<rect x="237.952" y="301.704" style="fill:#999999;" width="120.48" height="10.24"/>
	<rect x="237.952" y="322.16" style="fill:#999999;" width="120.48" height="10.24"/>
</g>
</svg>