<?xml version="1.0" encoding="iso-8859-1"?>
<!-- Uploaded to: SVG Repo, www.svgrepo.com, Generator: SVG Repo Mixer Tools -->
<svg version="1.1" id="Layer_1" xmlns="http://www.w3.org/2000/svg" xmlns:xlink="http://www.w3.org/1999/xlink" 
	 viewBox="0 0 512 512" xml:space="preserve">
<path style="fill:#9BF57D;" d="M358.614,503.983H153.386c-18.891,0-34.205-15.314-34.205-34.205V42.221
	c0-18.891,15.314-34.205,34.205-34.205h205.228c18.891,0,34.205,15.314,34.205,34.205v427.557
	C392.818,488.669,377.504,503.983,358.614,503.983z"/>
<rect x="119.182" y="76.426" style="fill:#FFF082;" width="273.637" height="359.148"/>
<circle style="fill:#FFF8C1;" cx="256" cy="256" r="136.818"/>
<circle style="fill:#FFFCE6;" cx="256" cy="256" r="92.994"/>
<path d="M346.536,234.539c-1.019-4.309-5.335-6.977-9.645-5.959c-4.309,1.018-6.977,5.336-5.959,9.645
	c1.367,5.787,2.06,11.766,2.06,17.775c0,26.322-13.113,49.902-33.858,63.858l0.982-1.377c2.571-3.605,1.733-8.611-1.872-11.182
	c-3.604-2.571-8.611-1.733-11.182,1.872l-16.893,23.686c-2.046,1.898-3.044,4.81-2.357,7.721c0.024,0.097,0.066,0.184,0.092,0.28
	c0.096,0.388,0.212,0.773,0.368,1.149c1.057,2.554,3.356,4.382,6.082,4.839l30.421,5.095c0.448,0.075,0.894,0.111,1.334,0.111
	c3.846,0,7.241-2.776,7.897-6.694c0.731-4.366-2.216-8.499-6.582-9.231l-3.299-0.553c9.298-5.635,17.638-12.876,24.501-21.44
	c13.154-16.414,20.398-37.06,20.398-58.134C349.025,248.753,348.188,241.533,346.536,234.539z"/>
<path d="M238.225,330.932c-32.613-7.705-56.022-35.162-58.911-68.045l0.869,1.766c1.395,2.833,4.239,4.477,7.198,4.477
	c1.189,0,2.396-0.266,3.535-0.826c3.972-1.955,5.606-6.761,3.651-10.733l-13.625-27.673c-1.221-2.48-3.633-4.156-6.383-4.435
	c-2.75-0.282-5.449,0.879-7.143,3.062l-18.903,24.374c-2.714,3.498-2.077,8.534,1.422,11.248c3.498,2.714,8.534,2.077,11.247-1.422
	l1.899-2.45c0.91,19.576,8.03,38.556,20.291,53.857c12.951,16.161,31.122,27.668,51.168,32.402c0.62,0.146,1.24,0.217,1.849,0.217
	c3.632,0,6.924-2.486,7.795-6.176C245.202,336.267,242.534,331.949,238.225,330.932z"/>
<path d="M299.871,193.242c-4.258-1.225-8.698,1.232-9.921,5.488c-1.225,4.254,1.232,8.697,5.488,9.92l29.641,8.53
	c0.731,0.211,1.476,0.312,2.217,0.312c1.953,0,3.868-0.714,5.358-2.053c2.055-1.848,3.015-4.624,2.539-7.346l-5.322-30.382
	c-0.764-4.361-4.921-7.279-9.28-6.514c-4.361,0.764-7.277,4.919-6.514,9.28l0.575,3.28c-16.404-13.376-36.931-20.783-58.652-20.783
	c-28.828,0-55.555,13.04-73.328,35.777c-2.727,3.489-2.11,8.527,1.379,11.253c1.467,1.146,3.206,1.701,4.932,1.701
	c2.383,0,4.741-1.057,6.321-3.079c14.714-18.822,36.836-29.618,60.696-29.618c16.52,0,32.204,5.179,45.176,14.61L299.871,193.242z"
	/>
<path d="M358.614,0H153.386c-23.281,0-42.221,18.941-42.221,42.221v427.557c0,23.28,18.941,42.221,42.221,42.221h205.228
	c23.28,0,42.221-18.941,42.221-42.221V42.221C400.835,18.941,381.894,0,358.614,0z M127.198,84.443h257.603v343.115H127.198V84.443z
	 M153.386,16.033h205.228c14.44,0,26.188,11.748,26.188,26.188v26.188H127.198V42.221C127.198,27.782,138.947,16.033,153.386,16.033
	z M358.614,495.967H153.386c-14.44,0-26.188-11.748-26.188-26.188v-26.188h257.603v26.188
	C384.802,484.218,373.053,495.967,358.614,495.967z"/>
<path d="M238.898,50.238h34.205c4.427,0,8.017-3.589,8.017-8.017s-3.589-8.017-8.017-8.017h-34.205
	c-4.427,0-8.017,3.589-8.017,8.017S234.47,50.238,238.898,50.238z"/>
<path d="M273.102,461.762h-34.205c-4.427,0-8.017,3.589-8.017,8.017s3.589,8.017,8.017,8.017h34.205
	c4.427,0,8.017-3.589,8.017-8.017S277.53,461.762,273.102,461.762z"/>
<path d="M213.244,50.238h0.086c4.427,0,7.974-3.589,7.974-8.017s-3.632-8.017-8.059-8.017s-8.017,3.589-8.017,8.017
	S208.817,50.238,213.244,50.238z"/>
</svg>